<?xml version="1.0" encoding="utf-8"?>
<!-- Generator: Adobe Illustrator 18.1.1, SVG Export Plug-In . SVG Version: 6.00 Build 0)  -->
<svg version="1.1" id="Layer_1" xmlns="http://www.w3.org/2000/svg" xmlns:xlink="http://www.w3.org/1999/xlink" x="0px" y="0px"
	 viewBox="0 0 719.5 470.9" enable-background="new 0 0 719.5 470.9" xml:space="preserve">
<g>
	<path fill="#0033C9" d="M218.4,32.2c4.6-6.1,5.3-14.2,1.9-21.1C216.9,4.3,210,0,202.3,0h-136v39.2h97.8L70.8,163.6
		c-4.6,6.1-5.3,14.2-1.9,21.1c3.4,6.9,10.3,11.1,18,11.1h136v-39.2h-97.8L218.4,32.2z"/>
	<path fill="#0033C9" d="M573.7,39.1c-43.2,0-78.3,35.1-78.3,78.3c0,43.2,35.1,78.3,78.3,78.3c43.2,0,78.3-35.1,78.3-78.3
		C652,74.3,616.9,39.1,573.7,39.1 M573.7,156.6c-21.6,0-39.1-17.5-39.1-39.1c0-21.6,17.5-39.1,39.1-39.1c21.6,0,39.1,17.5,39.1,39.1
		C612.8,139,595.2,156.6,573.7,156.6"/>
	<path fill="#00CF6A" d="M144.6,254.6c-43.2,0-78.3,35.1-78.3,78.3v137h39.2v-69.2c11.5,6.7,24.9,10.6,39.1,10.6
		c43.2,0,78.3-35.1,78.3-78.3C222.9,289.8,187.8,254.6,144.6,254.6 M144.6,372.1c-21.6,0-39.1-17.5-39.1-39.1
		c0-21.6,17.5-39.1,39.1-39.1c21.6,0,39.1,17.5,39.1,39.1C183.7,354.5,166.2,372.1,144.6,372.1"/>
	<polygon fill="#00CF6A" points="532.7,254.7 491,352 451.3,254.7 409,254.7 469.2,402.7 440.4,470 483.1,470 575.4,254.7 	"/>
	<path fill="#0033C9" d="M394.1,156.6V39.1h-39.3v14.3c-12.1-8.9-26.8-14.1-42.7-14.1c-41.2,0-74.6,35-74.6,78.2
		c0,43.2,33.4,78.2,74.6,78.2c19.3,0,36.8-7.7,50-20.3c8,12.2,21.8,20.3,37.6,20.3l13.9,0v-39.2H394.1z M315.8,156.6
		c-21.5,0-39-17.5-39-39c0-21.5,17.5-39,39-39c21.5,0,39,17.5,39,39v0v0C354.8,139.1,337.3,156.6,315.8,156.6"/>
	<path fill="#00CF6A" d="M394.1,372.1V254.7h-39.3V269c-12.1-8.9-26.8-14.1-42.7-14.1c-41.2,0-74.6,35-74.6,78.2
		c0,43.2,33.4,78.2,74.6,78.2c19.3,0,36.8-7.7,50-20.3c8,12.2,21.8,20.3,37.6,20.3l13.9,0v-39.2H394.1z M315.8,372.1
		c-21.5,0-39-17.5-39-39s17.5-39,39-39c21.5,0,39,17.5,39,39v0v0C354.8,354.6,337.3,372.1,315.8,372.1"/>
	<path fill="#0033C9" d="M467.8,156.5V0h-39.3v150.8c0,24.8,20.1,45,45,45l14,0v-39.3H467.8z"/>
</g>
</svg>
